{"title":"Kurt Cobain-Montage of Heck 2015 720p BRRip x264 AC3 5.1 titler","uid":11959105,"size":1733086655,"categoryP":"video","categoryS":"hd___movies","magnet":"?xt=urn:btih:84e08d8415d0331ec9f94795a944a75c235c1141&amp;dn=Kurt+Cobain-Montage+of+Heck+2015+720p+BRRip+x264+AC3+5.1+titler&amp;tr=udp%3A%2F%2Ftracker.openbittorrent.com%3A80&amp;tr=udp%3A%2F%2Fopen.demonii.com%3A1337&amp;tr=udp%3A%2F%2Ftracker.coppersurfer.tk%3A6969&amp;tr=udp%3A%2F%2Fexodus.desync.com%3A6969","seeders":0,"leechers":0,"uploader":"movieZ.freak","files":4,"time":1432515408,"description":"SOURCE: Kurt Cobain Montage of Heck 2015 720p BluRay x264-DEV0\n\n &lt;a href=&quot;\nhttp://www.imdb.com/title/tt4229236/&quot; rel=&quot;nofollow&quot; target=&quot;_NEW&quot;&gt;\nhttp://www.imdb.com/title/tt4229236/&lt;/a&gt;\n\n &lt;a href=&quot;\nhttp://www.rottentomatoes.com/m/kurt_cobain_montage_of_heck_2015/&quot; rel=&quot;nofollow&quot; target=&quot;_NEW&quot;&gt;\nhttp://www.rottentomatoes.com/m/kurt_cobain_montage_of_heck_2015/&lt;/a&gt;\n\n &lt;a href=&quot;\nhttp://en.wikipedia.org/wiki/Kurt_Cobain:_Montage_of_Heck&quot; rel=&quot;nofollow&quot; target=&quot;_NEW&quot;&gt;\nhttp://en.wikipedia.org/wiki/Kurt_Cobain:_Montage_of_Heck&lt;/a&gt;\n\n\n\n- SAMPLE: Yes\n\n- SUBTITLE: English\n\n- LANGUAGE / AUDIO: English\n\n\n\nSCREENSHOTS:\n------------------- &lt;a href=&quot;\nhttp://someimage.com/RIpB&quot; rel=&quot;nofollow&quot; target=&quot;_NEW&quot;&gt;\nhttp://someimage.com/RIpB&lt;/a&gt;\n\n\n\nDIRECTOR: Brett Morgen\n\n\n\nCAST: Kurt Cobain, Krist Novoselic, Dave Grohl, Courtney Love, Frances Bean Cobain, Wendy O'Connor, Don Cobain, Jenny Cobain, Kim Cobain, ...\n\n\nPLOT:\n-----------\nAn authorized documentary on the late musician Kurt Cobain, from his early days in Aberdeen, Washington to his success and downfall with the grunge band Nirvana.\n\n************************************\n\n- Duration: 2h 12mn\n\n- Nominal bit rate: 1295 Kbps\n\n- Res: 1280 x 720\n\n- AR: 16:9\n\n- FPS: 23.976 fps\n\n- Audio: AC3, 6 channels, 448 Kbps\n\n************************************\n\nGeneral\n--------------\nFormat : Matroska\nFormat version : Version 4 / Version 2\nFile size : 1.60 GiB\nDuration : 2h 12mn\nOverall bit rate : 1731 Kbps\nEncoded date : UTC 2015-05-24 18:09:47\nWriting application : mkvmerge v7.9.0 ('Birds') 64bit\nWriting library : libebml v1.3.1 + libmatroska v1.4.2\n\n\nVideo\n----------\nFormat : AVC\nFormat/Info : Advanced Video Codec\nFormat profile : &lt;a class=&quot;__cf_email__&quot; href=&quot;/cdn-cgi/l/email-protection&quot; data-cfemail=&quot;337e525a5d737f071d02&quot;&gt;[email&amp;#160;protected]&lt;/a&gt;&lt;script data-cfhash='f9e31' type=&quot;text/javascript&quot;&gt;\n/* &lt;![CDATA[ */!function(){try{var t=&quot;currentScript&quot;in document?document.currentScript:function(){for(var t=document.getElementsByTagName(&quot;script&quot;),e=t.length;e--;)if(t[e].getAttribute(&quot;data-cfhash&quot;))return t[e]}();if(t&amp;&amp;t.previousSibling){var e,r,n,i,c=t.previousSibling,a=c.getAttribute(&quot;data-cfemail&quot;);if(a){for(e=&quot;&quot;,r=parseInt(a.substr(0,2),16),n=2;a.length-n;n+=2)i=parseInt(a.substr(n,2),16)^r,e+=String.fromCharCode(i);e=document.createTextNode(e),c.parentNode.replaceChild(e,c)}t.parentNode.removeChild(t);}}catch(u){}}()/* ]]&gt; */&lt;/script&gt;\nFormat settings, CABAC : Yes\nFormat settings, ReFrames : 4 frames\nCodec ID : V_MPEG4/ISO/AVC\nDuration : 2h 12mn\nBit rate : 1295 Kbps\nWidth : 1280 pixels\nHeight : 720 pixels\nDisplay aspect ratio : 16:9\nFrame rate mode : Constant\nFrame rate : 23.976 fps\nColor space : YUV\nChroma subsampling : 4:2:0\nBit depth : 8 bits\nScan type : Progressive\nBits/(Pixel*Frame) : 0.059\nStream size : 1.15 GiB (72%)\nWriting library : x264 core 142\nEncoding settings : cabac=1 / ref=4\nDefault : Yes\nForced : No\n\n\nAudio\n----------\nFormat : AC-3\nFormat/Info : Audio Coding 3\nMode extension : CM (complete main)\nFormat settings, Endianness : Big\nCodec ID : A_AC3\nDuration : 2h 12mn\nBit rate mode : Constant\nBit rate : 448 Kbps\nChannel(s) : 6 channels\nChannel positions : Front: L C R, Side: L R, LFE\nSampling rate : 48.0 KHz\nBit depth : 16 bits\nCompression mode : Lossy\nStream size : 424 MiB (26%)\nTitle : Surround\nLanguage : English\nDefault : Yes\nForced : No","torrent":{"xt":"urn:btih:84e08d8415d0331ec9f94795a944a75c235c1141","amp;dn":"Kurt+Cobain-Montage+of+Heck+2015+720p+BRRip+x264+AC3+5.1+titler","amp;tr":["udp%3A%2F%2Ftracker.openbittorrent.com%3A80","udp%3A%2F%2Fopen.demonii.com%3A1337","udp%3A%2F%2Ftracker.coppersurfer.tk%3A6969","udp%3A%2F%2Fexodus.desync.com%3A6969"],"infoHash":"84e08d8415d0331ec9f94795a944a75c235c1141","infoHashBuffer":{"type":"Buffer","data":[132,224,141,132,21,208,51,30,201,249,71,149,169,68,167,92,35,92,17,65]},"announce":[],"urlList":[]}}